<?xml version="1.0" encoding="utf-8"?>
<!-- Generator: Adobe Illustrator 19.0.0, SVG Export Plug-In . SVG Version: 6.00 Build 0)  -->
<svg version="1.1" id="圖層_1" xmlns="http://www.w3.org/2000/svg" xmlns:xlink="http://www.w3.org/1999/xlink" x="0px" y="0px"
	 viewBox="0 0 35 35" style="enable-background:new 0 0 35 35;" xml:space="preserve">
<style type="text/css">
	.st0{fill:#FFFFFF;}
</style>
<g id="XMLID_127_">
	<path id="XMLID_135_" class="st0" d="M13.1,19.4h4.6c-0.8,2.3-3,3.9-5.6,3.9c-3.1,0-5.7-2.5-5.8-5.6c-0.1-3.3,2.5-6.1,5.8-6.1
		c1.5,0,2.9,0.6,3.9,1.5c0.2,0.2,0.6,0.2,0.9,0l1.7-1.6c0.3-0.2,0.3-0.7,0-0.9c-1.6-1.6-3.9-2.5-6.3-2.6C7.2,8,2.8,12.2,2.8,17.4
		c0,5.2,4.2,9.5,9.4,9.5c5,0,9.1-3.9,9.4-8.9c0-0.1,0-2.2,0-2.2h-8.5c-0.3,0-0.6,0.3-0.6,0.6v2.3C12.5,19.2,12.8,19.4,13.1,19.4z"/>
	<path id="XMLID_134_" class="st0" d="M29.4,16.1v-2.3c0-0.3-0.2-0.6-0.6-0.6H27c-0.3,0-0.6,0.2-0.6,0.6v2.3h-2.3
		c-0.3,0-0.6,0.2-0.6,0.6v1.9c0,0.3,0.2,0.6,0.6,0.6h2.3v2.3c0,0.3,0.2,0.6,0.6,0.6h1.9c0.3,0,0.6-0.2,0.6-0.6v-2.3h2.3
		c0.3,0,0.6-0.2,0.6-0.6v-1.9c0-0.3-0.2-0.6-0.6-0.6L29.4,16.1L29.4,16.1z"/>
</g>
</svg>
