<?xml version="1.0" encoding="utf-8"?>
<!-- Generator: Adobe Illustrator 19.0.0, SVG Export Plug-In . SVG Version: 6.00 Build 0)  -->
<svg version="1.1" id="圖層_1" xmlns="http://www.w3.org/2000/svg" xmlns:xlink="http://www.w3.org/1999/xlink" x="0px" y="0px"
	 viewBox="-172 299 35 35" style="enable-background:new -172 299 35 35;" xml:space="preserve">
<style type="text/css">
	.st0{opacity:0.9;fill:none;stroke:#5D5F77;stroke-width:1.25;stroke-miterlimit:10;}
	.st1{opacity:0.9;fill:#5D5F77;}
</style>
<circle class="st0" cx="-154.5" cy="316.5" r="8.7"/>
<path class="st1" d="M-150.7,315.9C-150.7,315.9-150.7,315.9-150.7,315.9L-150.7,315.9h-3.2v-3.2h0c0,0,0,0,0,0
	c0-0.3-0.3-0.6-0.6-0.6s-0.6,0.3-0.6,0.6c0,0,0,0,0,0h0v3.2h-3.2v0c0,0,0,0,0,0c-0.3,0-0.6,0.3-0.6,0.6s0.3,0.6,0.6,0.6c0,0,0,0,0,0
	v0h3.2v3.2h0c0,0,0,0,0,0c0,0.3,0.3,0.6,0.6,0.6s0.6-0.3,0.6-0.6c0,0,0,0,0,0h0v-3.2h3.2v0c0,0,0,0,0,0c0.3,0,0.6-0.3,0.6-0.6
	S-150.3,315.9-150.7,315.9z"/>
</svg>
