<?xml version="1.0" encoding="utf-8"?>
<!-- Generator: Adobe Illustrator 19.0.0, SVG Export Plug-In . SVG Version: 6.00 Build 0)  -->
<svg version="1.1" id="圖層_1" xmlns="http://www.w3.org/2000/svg" xmlns:xlink="http://www.w3.org/1999/xlink" x="0px" y="0px"
	 viewBox="0 0 40 40" style="enable-background:new 0 0 40 40;" xml:space="preserve">
<style type="text/css">
	.st0{fill:#FFFFFF;}
	.st1{fill:none;stroke:#FFFFFF;stroke-miterlimit:10;}
</style>
<g id="XMLID_3050_">
	<ellipse id="XMLID_3062_" class="st0" cx="11.5" cy="12.6" rx="3.5" ry="4.6"/>
	<path id="XMLID_3061_" class="st0" d="M12.3,17l0.9,13.3c0,0.9-0.7,1.7-1.7,1.7c-0.9,0-1.7-0.7-1.7-1.7L10.7,17"/>
	<g id="XMLID_3059_">
		<path id="XMLID_3060_" class="st0" d="M22.1,17.5l0.8,12.8c0,0.9-0.7,1.7-1.7,1.7c-0.9,0-1.7-0.7-1.7-1.7l0.9-12.8"/>
	</g>
	<path id="XMLID_3058_" class="st1" d="M19.7,17.5c-0.7,0-1.2-0.5-1.2-1.2"/>
	<path id="XMLID_3057_" class="st1" d="M23.9,16.4c0,0.7-0.5,1.2-1.2,1.2"/>
	<line id="XMLID_3056_" class="st1" x1="18.5" y1="16.6" x2="18.5" y2="8"/>
	<line id="XMLID_3055_" class="st1" x1="23.9" y1="16.4" x2="23.9" y2="8"/>
	<line id="XMLID_3054_" class="st1" x1="18.5" y1="15.3" x2="23.9" y2="15.3"/>
	<line id="XMLID_3053_" class="st1" x1="21.2" y1="15.3" x2="21.2" y2="8"/>
	<line id="XMLID_3052_" class="st1" x1="19.7" y1="17.5" x2="22.7" y2="17.5"/>
	<path id="XMLID_3051_" class="st0" d="M31.9,22.4h-2.8c-0.4,0-0.7-0.3-0.7-0.7v-7.4c0-1.7,0.7-3.4,1.7-4.8S31.5,8,31.5,8l0,0
		c0,0,0.1-0.1,0.2-0.1C31.8,8,32,8.1,32,8.3h0v22.6c0,0.6-0.5,1.1-1.1,1.1c-0.6,0-1.1-0.5-1.1-1.1v-8.4"/>
</g>
</svg>
