<?xml version="1.0" encoding="utf-8"?>
<!-- Generator: Adobe Illustrator 19.0.0, SVG Export Plug-In . SVG Version: 6.00 Build 0)  -->
<svg version="1.1" id="圖層_1" xmlns="http://www.w3.org/2000/svg" xmlns:xlink="http://www.w3.org/1999/xlink" x="0px" y="0px"
	 viewBox="0 0 40 40" style="enable-background:new 0 0 40 40;" xml:space="preserve">
<style type="text/css">
	.st0{fill:#FFFFFF;}
</style>
<path id="XMLID_2048_" class="st0" d="M30,21.3v-1.7c0-0.4-0.4-0.8-0.8-0.8c-0.4,0-0.8,0.3-0.8,0.8v0.6l-1.8-1.1v-1.7
	c0-0.4-0.4-0.8-0.8-0.8c-0.4,0-0.8,0.4-0.8,0.8v0.7l-3.7-2.4v-4.7c0-0.7-0.6-2.4-1.3-2.4c-0.7,0-1.3,1.7-1.3,2.4v4.7L15,18.1v-0.7
	c0-0.4-0.4-0.8-0.8-0.8c-0.4,0-0.8,0.4-0.8,0.8v1.7l-1.8,1.1v-0.6c0-0.4-0.3-0.8-0.8-0.8c-0.4,0-0.8,0.3-0.8,0.8v1.7l-3.1,2
	c0,0,0,1.6,0,2c0,0.4,0.5,0.2,1.1-0.1c0.7-0.3,8.8-2.9,10.6-3.4v3.4c0,0.5,0.3,1,0.8,1.2v0.7l-3.5,3c0,0,0,1.2,0,1.4
	c0,0.2,4-1.4,4-1.4s4,1.7,4,1.4c0-0.2,0-1.4,0-1.4l-3.5-3v-0.7c0.5-0.2,0.8-0.7,0.8-1.2v-3.4c1.8,0.6,9.9,3.2,10.6,3.4
	c0.7,0.3,1.1,0.5,1.1,0.1c0-0.4,0-2,0-2L30,21.3z"/>
</svg>
