<?xml version="1.0" encoding="utf-8"?>
<!-- Generator: Adobe Illustrator 19.0.0, SVG Export Plug-In . SVG Version: 6.00 Build 0)  -->
<svg version="1.1" id="圖層_1" xmlns="http://www.w3.org/2000/svg" xmlns:xlink="http://www.w3.org/1999/xlink" x="0px" y="0px"
	 viewBox="0 0 40 40" style="enable-background:new 0 0 40 40;" xml:space="preserve">
<style type="text/css">
	.st0{fill:#FFFFFF;}
</style>
<path id="XMLID_3068_" class="st0" d="M33.1,11.6L33.1,11.6c-0.2-0.2-0.4-0.4-0.9-0.4H11.9c0-0.4,0-0.6-0.1-0.7c0-1-0.7-1.4-1.3-1.4
	H6.6v1.7l3.5,0c0.2,2.1,1.2,14.1,1.3,14.7c0.2,1.1,1.1,1.1,1.4,1.1h2.4c-0.9,0.2-1.6,1-1.6,2c0,1.1,0.9,2.1,2.1,2.1
	c1.1,0,2.1-0.9,2.1-2.1c0-1-0.7-1.8-1.6-2h11.5c-0.9,0.2-1.6,1-1.6,2c0,1.1,0.9,2.1,2.1,2.1c1.1,0,2.1-0.9,2.1-2.1
	c0-1-0.7-1.8-1.6-2h3V25H13.1c0-0.2,0-0.4-0.1-0.7c3.5-0.4,18.1-1.9,18.4-1.9c0.3,0,1.1-0.1,1.1-1.1c0-0.2,0.1-1.6,0.8-7.7l0.1-0.8
	C33.4,12.5,33.5,12,33.1,11.6z M16.8,17.2l-4.4,0.3c-0.1-1.7-0.3-3.3-0.4-4.6h4.4L16.8,17.2z M24.2,18.3v3.1L18.9,22l-0.3-3.2
	L24.2,18.3z M18.1,13h6v3.6l-5.7,0.4L18.1,13z M17.2,22.2l-4.4,0.5c-0.1-1-0.2-2.2-0.3-3.4l4.4-0.3L17.2,22.2z M25.9,21.3v-3.1
	l5.2-0.4c-0.2,1.6-0.3,2.5-0.3,3L25.9,21.3z M31.6,13l-0.3,3.1l-5.4,0.4V13H31.6z"/>
</svg>
