<?xml version="1.0" encoding="utf-8"?>
<!-- Generator: Adobe Illustrator 19.0.0, SVG Export Plug-In . SVG Version: 6.00 Build 0)  -->
<svg version="1.1" id="圖層_1" xmlns="http://www.w3.org/2000/svg" xmlns:xlink="http://www.w3.org/1999/xlink" x="0px" y="0px"
	 viewBox="0 0 62 62" style="enable-background:new 0 0 62 62;" xml:space="preserve">
<style type="text/css">
	.st0{fill:#FFFFFF;}
</style>
<path id="XMLID_5_" class="st0" d="M42.3,30C42.3,30,42.2,30,42.3,30L42.3,30l-10.4,0V19.7h0c0,0,0,0,0-0.1c0-0.6-0.4-1-1-1
	c-0.6,0-1,0.4-1,1c0,0,0,0,0,0.1h0V30H19.7c0,0,0,0,0,0s0,0,0,0h-0.2v0c-0.5,0.1-0.8,0.5-0.8,1c0,0.5,0.4,0.9,0.8,1v0h10.3v10.3h0
	c0,0,0,0.1,0,0.1c0,0.6,0.4,1,1,1c0.6,0,1-0.4,1-1c0,0,0-0.1,0-0.1h0V32h10.3v0c0,0,0,0,0,0c0.6,0,1-0.4,1-1
	C43.3,30.4,42.8,30,42.3,30z"/>
</svg>
