<?xml version="1.0" encoding="utf-8"?>
<!-- Generator: Adobe Illustrator 19.0.0, SVG Export Plug-In . SVG Version: 6.00 Build 0)  -->
<svg version="1.1" id="Capa_1" xmlns="http://www.w3.org/2000/svg" xmlns:xlink="http://www.w3.org/1999/xlink" x="0px" y="0px"
	 viewBox="488 0 24 24" style="enable-background:new 488 0 24 24;" xml:space="preserve">
<style type="text/css">
	.st0{fill:#5D5F77;}
</style>
<g>
	<path class="st0" d="M500,4.8c-2.4,0-4.4,2-4.4,4.4c0,0,0,0,0,0c0,0,0,0,0,0c0,0,0,0,0,0h0c0,0.4,0.3,0.6,0.7,0.6
		c0.4,0,0.6-0.3,0.7-0.6h0c0-1.7,1.4-3.1,3.1-3.1c1.7,0,3.1,1.4,3.1,3.1s-1.4,3.1-3.1,3.1h0v0c-0.4,0-0.6,0.3-0.6,0.7c0,0,0,0,0,0
		l0,0v2.9h0c0,0.3,0.3,0.6,0.6,0.6c0.3,0,0.6-0.3,0.6-0.6h0v0c0,0,0,0,0,0s0,0,0,0v-2.3c2.1-0.3,3.8-2.2,3.8-4.4
		C504.4,6.8,502.4,4.8,500,4.8z"/>
	<circle class="st0" cx="500" cy="18.4" r="0.8"/>
</g>
</svg>
