<?xml version="1.0" encoding="utf-8"?>
<!-- Generator: Adobe Illustrator 19.0.0, SVG Export Plug-In . SVG Version: 6.00 Build 0)  -->
<svg version="1.1" id="圖層_1" xmlns="http://www.w3.org/2000/svg" xmlns:xlink="http://www.w3.org/1999/xlink" x="0px" y="0px"
	 viewBox="-280 403.9 35 35" style="enable-background:new -280 403.9 35 35;" xml:space="preserve">
<style type="text/css">
	.st0{fill:none;stroke:#999999;stroke-width:0.5;stroke-miterlimit:10;}
	.st1{fill:#999999;}
</style>
<g>
	<g id="XMLID_148_">
		<circle id="XMLID_160_" class="st0" cx="-262.5" cy="421.4" r="12.5"/>
	</g>
</g>
<g>
	<g>
		<path class="st1" d="M-255.3,419.2v-2.1v-0.2c0-1.2-1.1-2.2-2.4-2.2v0v0.5v0v0.5v0v0.3c0,0.8-0.6,1.4-1.4,1.4
			c-0.8,0-1.4-0.6-1.4-1.4v-0.3v-0.5v-0.5h-4v0.5v0.5v0.3c0,0.8-0.6,1.4-1.4,1.4c-0.8,0-1.4-0.6-1.4-1.4v-0.3v0v-0.5v0v-0.5v0
			c-1.3,0.1-2.4,1-2.4,2.2v0.2v2.1v7.4c0,1.4,1.1,2.5,2.5,2.5h9.6c1.4,0,2.5-1.1,2.5-2.5L-255.3,419.2L-255.3,419.2z M-256.3,426.7
			c0,0.8-0.6,1.4-1.4,1.4h-9.6c-0.8,0-1.4-0.6-1.4-1.4v-7.4h12.3V426.7z"/>
		<path class="st1" d="M-266.6,414.3v0.4v0.5v0.5v0.3c0,0.3,0.3,0.6,0.6,0.6c0.3,0,0.6-0.3,0.6-0.6v-0.3v-0.5v-0.5v-0.4
			c0-0.3-0.3-0.6-0.6-0.6C-266.3,413.6-266.6,413.9-266.6,414.3z"/>
		<path class="st1" d="M-259.1,413.6c-0.3,0-0.6,0.3-0.6,0.6v0.4v0.5v0.5v0.3c0,0.3,0.3,0.6,0.6,0.6s0.6-0.3,0.6-0.6v-0.3v-0.5v-0.5
			v-0.4C-258.5,413.9-258.7,413.6-259.1,413.6z"/>
		<path class="st1" d="M-264.3,426.7c0.7,0,1.2-0.2,1.6-0.6c0.4-0.4,0.5-0.8,0.5-1.4c0-0.5-0.2-0.9-0.5-1.2
			c-0.1-0.1-0.2-0.1-0.2-0.2c-0.1-0.1-0.1-0.1,0-0.2c0.1-0.1,0.1-0.1,0.2-0.2c0.2-0.2,0.3-0.5,0.3-0.9c0-0.5-0.2-0.9-0.5-1.2
			c-0.4-0.3-0.8-0.5-1.4-0.5c-0.3,0-0.6,0-0.8,0.1c-0.2,0.1-0.4,0.2-0.6,0.3c-0.2,0.2-0.4,0.4-0.5,0.7c-0.1,0.2-0.1,0.4-0.1,0.6
			c0,0.1,0.1,0.3,0.2,0.3h0.6c0.1,0,0.3-0.1,0.3-0.3c0-0.2,0.1-0.3,0.2-0.5c0.1-0.2,0.3-0.3,0.6-0.3c0.2,0,0.4,0.1,0.6,0.2
			c0.1,0.1,0.2,0.3,0.2,0.6c0,0.4-0.1,0.6-0.4,0.7c-0.1,0.1-0.3,0.1-0.5,0.1c-0.1,0-0.3,0.1-0.3,0.3v0.3c0,0.1,0.1,0.3,0.3,0.3
			c0.3,0,0.5,0,0.6,0.1c0.3,0.1,0.5,0.4,0.5,0.8c0,0.3-0.1,0.5-0.3,0.7c-0.2,0.2-0.4,0.2-0.6,0.2c-0.4,0-0.6-0.1-0.8-0.4
			c0-0.1-0.1-0.2-0.1-0.3c0-0.1-0.1-0.3-0.3-0.3h-0.6c-0.1,0-0.3,0.1-0.2,0.3c0,0.4,0.1,0.7,0.3,0.9
			C-265.8,426.4-265.2,426.7-264.3,426.7z"/>
		<path class="st1" d="M-261,422.3h0.9c0.1,0,0.3,0.1,0.3,0.3v3.7c0,0.1,0.1,0.3,0.3,0.3h0.7c0.1,0,0.3-0.1,0.3-0.3v-5.6
			c0-0.1-0.1-0.3-0.3-0.3h-0.5c-0.1,0-0.3,0.1-0.3,0.1c0,0,0,0.1,0,0.1c-0.1,0.2-0.1,0.3-0.2,0.4c-0.2,0.2-0.3,0.3-0.6,0.3
			c-0.1,0-0.3,0-0.5,0.1c-0.1,0-0.3,0.1-0.3,0.3v0.3C-261.2,422.2-261.1,422.3-261,422.3z"/>
	</g>
</g>
</svg>
