<?xml version="1.0" encoding="utf-8"?>
<!-- Generator: Adobe Illustrator 19.0.0, SVG Export Plug-In . SVG Version: 6.00 Build 0)  -->
<svg version="1.1" id="圖層_1" xmlns="http://www.w3.org/2000/svg" xmlns:xlink="http://www.w3.org/1999/xlink" x="0px" y="0px"
	 viewBox="0 0 40 40" style="enable-background:new 0 0 40 40;" xml:space="preserve">
<style type="text/css">
	.st0{fill:#FFFFFF;}
</style>
<path id="XMLID_3033_" class="st0" d="M30.1,10.2l1.7-2.5l-0.9-0.6l-1.7,2.6c-1.6-0.7-4.2-1.2-7.7-1.2l0,0h0h0h0
	c-2.2,0-4.2,0.2-5.8,0.6c-0.8-1-2-1.6-3.3-1.6c-2.3,0-4.3,1.9-4.3,4.3s1.9,4.3,4.3,4.3c0.6,0,1.2-0.1,1.7-0.4c0.3,0.4,0.6,0.9,1,1.4
	l0,0.1c0,0.1,0.1,0.2,0.2,0.3c0.8,1.2,1.6,2.3,2.3,3.3c1.7,2.3,2.6,3.3,3.3,3.6v5.1c-1.6,0-5.3,0.3-5.3,1.7c0,1.6,4.9,1.7,5.8,1.7
	s5.8-0.1,5.8-1.7c0-1.4-3.7-1.6-5.3-1.7v-5.1c0.7-0.3,1.6-1.3,3.3-3.6c1.8-2.5,4.6-6.6,5.2-7.6c0.5-0.8,0.5-1.1,0.5-1.7
	C31.1,11.1,30.8,10.6,30.1,10.2z M26,17c0.1,0,0.2,0.1,0.3,0.1c-0.2,0.1-0.5,0.2-0.8,0.2l0.2-0.3H26z M24,17.5
	c-0.7,0.1-1.5,0.1-2.5,0.1c-2.8,0-4.2-0.3-4.9-0.6c0.1,0,0.1,0,0.2,0h7.6L24,17.5z M27.2,16.3c-0.2-0.1-0.5-0.2-0.9-0.3l1.5-2.3
	c0.5-0.1,1-0.2,1.4-0.4C28.8,14,28,15.1,27.2,16.3z M30,11.6L30,11.6c0,0.1-0.4,0.5-1.3,0.8l0.8-1.3C29.9,11.3,30,11.5,30,11.6z
	 M21.5,9.6c3.6,0,5.8,0.5,7.1,1l-1.4,2.1c-1.3,0.3-3.2,0.5-5.7,0.5c-2,0-3.7-0.2-5-0.4c0.1-0.3,0.1-0.7,0.1-1.1
	c0-0.6-0.1-1.2-0.4-1.7C17.8,9.8,19.5,9.6,21.5,9.6z M12.5,15c-1.8,0-3.2-1.4-3.2-3.2s1.4-3.2,3.2-3.2s3.2,1.4,3.2,3.2
	c0,0.3-0.1,0.6-0.1,0.9c-1.5-0.3-2.4-0.7-2.5-1c0-0.1,0-0.1,0-0.2l-1,0.1c0,0.1,0,0.1,0,0.2h0c0,0,0,0,0,0c0,0.4,0.1,0.7,0.5,1.4
	c0.2,0.3,0.6,0.9,1.1,1.6C13.2,14.9,12.8,15,12.5,15z M14.5,14.3c-0.3-0.4-0.5-0.8-0.7-1c0.4,0.1,0.8,0.3,1.3,0.4
	C14.9,13.9,14.7,14.1,14.5,14.3z M13,11.7C13,11.7,13,11.7,13,11.7L13,11.7C13,11.7,13,11.7,13,11.7z M16.2,13.9
	c1.5,0.3,3.3,0.4,5.4,0.4c1.6,0,3.4-0.1,4.9-0.3l-1.2,1.8c-0.9-0.1-2.1-0.2-3.7-0.2c0,0,0,0,0,0c0,0,0,0,0,0c-3.4,0-5,0.3-5.7,0.7
	c-0.3-0.4-0.5-0.7-0.7-1.1C15.5,14.8,15.9,14.4,16.2,13.9z M26.2,31.2c-0.5,0.3-2.1,0.7-4.7,0.7s-4.1-0.4-4.7-0.7
	c0.5-0.3,1.9-0.6,4.1-0.6v0.6h1v-0.6C24.3,30.6,25.7,30.9,26.2,31.2z"/>
</svg>
