<?xml version="1.0" encoding="utf-8"?>
<!-- Generator: Adobe Illustrator 19.0.0, SVG Export Plug-In . SVG Version: 6.00 Build 0)  -->
<svg version="1.1" id="圖層_1" xmlns="http://www.w3.org/2000/svg" xmlns:xlink="http://www.w3.org/1999/xlink" x="0px" y="0px"
	 viewBox="-277 400.9 40 40" style="enable-background:new -277 400.9 40 40;" xml:space="preserve">
<style type="text/css">
	.st0{fill:#FFDB56;}
	.st1{fill:#FF4A4A;}
	.st2{fill:#FFBB24;}
	.st3{fill:#E7343F;}
</style>
<g id="XMLID_1_">
	<path id="XMLID_14_" class="st0" d="M-257,429.9c-4,0-8.2,1.3-8.2,3.8c0,2.4,4.2,3.8,8.2,3.8s8.2-1.3,8.2-3.8S-253,429.9-257,429.9
		z"/>
	<path id="XMLID_11_" class="st1" d="M-257,404.3c-6.4,0-11.6,5.2-11.6,11.6c0,4,1.9,8.2,5.6,12.7c2.7,3.3,5.4,5.4,5.6,5.5
		c0.1,0.1,0.3,0.1,0.4,0.1s0.3,0,0.4-0.1c0.1-0.1,2.8-2.2,5.6-5.5c3.7-4.5,5.6-8.7,5.6-12.7C-245.4,409.5-250.6,404.3-257,404.3z
		 M-252.6,415.9c0,2.4-1.9,4.4-4.4,4.4c-2.4,0-4.4-1.9-4.4-4.4s1.9-4.4,4.4-4.4C-254.6,411.6-252.6,413.5-252.6,415.9z"/>
	<g id="XMLID_8_">
		<path id="XMLID_10_" class="st2" d="M-257,435.7c-3.5,0-7.1-1-8-2.9c-0.1,0.3-0.2,0.6-0.2,0.9c0,2.4,4.2,3.8,8.2,3.8
			s8.2-1.3,8.2-3.8c0-0.3-0.1-0.6-0.2-0.9C-249.9,434.7-253.5,435.7-257,435.7z"/>
	</g>
	<g id="XMLID_2_">
		<path id="XMLID_7_" class="st3" d="M-257,404.3c-0.4,0-0.9,0-1.3,0.1c5.8,0.7,10.3,5.6,10.3,11.5c0,4-1.9,8.2-5.6,12.7
			c-1.8,2.2-3.6,3.9-4.7,4.7c0.5,0.4,0.8,0.7,0.9,0.7c0.1,0.1,0.3,0.1,0.4,0.1s0.3,0,0.4-0.1c0.1-0.1,2.8-2.2,5.6-5.5
			c3.7-4.5,5.6-8.7,5.6-12.7C-245.4,409.5-250.6,404.3-257,404.3z"/>
	</g>
</g>
</svg>
