<?xml version="1.0" encoding="utf-8"?>
<!-- Generator: Adobe Illustrator 19.0.0, SVG Export Plug-In . SVG Version: 6.00 Build 0)  -->
<svg version="1.1" id="圖層_1" xmlns="http://www.w3.org/2000/svg" xmlns:xlink="http://www.w3.org/1999/xlink" x="0px" y="0px"
	 viewBox="0 0 130 40" style="enable-background:new 0 0 130 40;" xml:space="preserve">
<style type="text/css">
	.st0{fill:#5D5F77;}
	.st1{fill:url(#XMLID_3_);}
</style>
<g id="XMLID_2_">
	<g id="XMLID_16_">
		<path id="XMLID_30_" class="st0" d="M49.9,10.9h8.7v3.2h-5.4v3.2h5.4v3.2h-5.4v7.9h-3.3V10.9z"/>
		<path id="XMLID_28_" class="st0" d="M61.1,21.6v-6.1h3.2v6.8c0,0.3,0,0.7,0.1,1.1c0,0.4,0.1,0.7,0.2,1c0.3,0.8,0.9,1.3,1.7,1.4
			c0.6,0.1,1.1,0,1.6-0.2c0.3-0.1,0.6-0.4,0.9-0.9c0.2-0.3,0.3-0.6,0.3-0.9c0.1-0.4,0.1-0.8,0.1-1.3v-6.9h3.2v6.2
			c0,0.8-0.1,1.6-0.1,2.2c-0.1,0.7-0.3,1.4-0.5,1.9c-0.4,0.8-0.9,1.4-1.5,1.9c-0.6,0.4-1.2,0.7-1.9,0.9c-0.4,0.1-0.8,0.2-1.2,0.2
			h-0.7c-0.6,0-1.3-0.1-1.9-0.4c-0.7-0.2-1.3-0.6-1.9-1.3c-0.5-0.6-0.8-1.2-1.1-1.9c-0.2-0.6-0.3-1.2-0.3-1.9
			C61.1,22.6,61.1,22.1,61.1,21.6z"/>
		<path id="XMLID_26_" class="st0" d="M78.9,16.8c1.3-1.1,2.5-1.6,3.6-1.6H83c0.7,0,1.4,0.2,1.9,0.5c0.5,0.3,1,0.7,1.4,1.2
			c0.5,0.8,0.8,1.6,0.8,2.7v8.8h-3.2V22c0-0.9-0.1-1.7-0.2-2.3c-0.1-0.3-0.2-0.6-0.5-1c-0.5-0.6-1.2-0.8-2-0.6
			c-0.7,0.1-1.3,0.5-1.8,1.3c-0.4,0.7-0.5,1.3-0.5,1.9l0,1v6h-3.2V15.5h3.2V16.8z"/>
		<path id="XMLID_24_" class="st0" d="M88.9,10.9h9.6v3.3h-3.2v14.2H92V14.2h-3.1V10.9z"/>
		<path id="XMLID_22_" class="st0" d="M104.5,15.2c0.7-0.2,1.4-0.1,2.1,0.2l-1,2.8c-0.4-0.2-0.8-0.3-1.2-0.3
			c-0.3,0.1-0.6,0.3-0.9,0.7c-0.2,0.3-0.3,0.6-0.4,1c-0.2,0.9-0.3,1.9-0.2,3.2v5.5h-3.2V15.5h2.8v1.1c0,0.3,0.1,0.3,0.3,0
			C103.2,15.9,103.8,15.4,104.5,15.2z"/>
		<path id="XMLID_21_" class="st0" d="M108.9,10.2c0.7-0.2,1.3,0,1.9,0.5c0.3,0.3,0.5,0.6,0.6,0.9c0.2,0.7,0.1,1.4-0.4,2
			c-0.5,0.6-1.2,0.8-1.9,0.7c-0.7-0.1-1.3-0.6-1.6-1.5c-0.2-0.7-0.1-1.4,0.4-2C108.2,10.5,108.6,10.3,108.9,10.2z"/>
		<rect id="XMLID_20_" x="107.8" y="15.5" class="st0" width="3.2" height="12.9"/>
		<path id="XMLID_17_" class="st0" d="M119.4,15.5c0.4-0.2,1-0.3,1.6-0.3h0.5c0.6,0,1.3,0.2,1.9,0.4c1.5,0.7,2.6,1.8,3.2,3.3
			c0.3,0.8,0.5,1.8,0.6,2.8v0.6c0,0.7-0.1,1.4-0.3,1.9c-0.2,0.8-0.6,1.4-1,1.9c-0.5,0.7-1.1,1.3-1.8,1.7c-0.8,0.5-1.7,0.8-2.7,0.9
			h-0.5c-0.7,0-1.3-0.2-1.9-0.5c-0.6-0.3-1.2-0.7-1.8-1.2v6.1H114V15.5h3.2v1.4C117.9,16.2,118.6,15.7,119.4,15.5z M120.4,18.1
			c-0.6,0-1.2,0.2-1.7,0.5c-0.7,0.5-1.2,1.1-1.4,1.8c-0.1,0.3-0.2,0.7-0.2,1.1v0.5c0,0.7,0.2,1.4,0.6,1.9c0.5,0.8,1.1,1.3,1.9,1.5
			c0.2,0.1,0.5,0.1,0.9,0.1h0.5c0.3,0,0.7-0.1,1-0.2c0.7-0.2,1.3-0.7,1.8-1.5c0.3-0.6,0.5-1.2,0.5-1.9v-0.5c0-0.7-0.2-1.3-0.6-1.9
			c-0.5-0.7-1.1-1.2-1.9-1.4c-0.3-0.1-0.5-0.1-0.8-0.1H120.4z"/>
	</g>
	<linearGradient id="XMLID_3_" gradientUnits="userSpaceOnUse" x1="20.6693" y1="2.5" x2="20.6693" y2="37.5">
		<stop  offset="0" style="stop-color:#0573FE"/>
		<stop  offset="1" style="stop-color:#2FF6F6"/>
	</linearGradient>
	<path id="XMLID_4_" class="st1" d="M20.7,2.5c-9.9,0-18,8.1-18,18c0,7.9,5,14.5,12.1,17c1-1,2.5-2.7,3.3-4.6
		c1.1-2.6,1.9-5.4,2.2-7.3c-0.9,0.3-3.3,1.2-3.3,1.1c0-0.2-0.2-0.9,0-1.1c0.2-0.1,2.5-1.6,3.1-1.9c-0.3-1.6-0.5-3.7-0.8-5.7
		c-2.2,0.9-7.8,3-7.8,2.9c0-0.2,0-0.9,0-1.2l7.4-4.9c-0.1-1.3-0.2-2.2-0.2-2.4c0-1.1,0.9-3.1,2-3.1c1.1,0,2,2.1,2,3.1
		c0,0.3-0.1,1.2-0.2,2.4l7.4,4.9c0,0.4,0,1,0,1.2c0,0.2-5.6-2-7.8-2.9c-0.2,2-0.5,4.1-0.8,5.7c0.6,0.4,2.9,1.8,3.1,1.9
		c0.2,0.1,0,0.9,0,1.1c0,0.1-2.3-0.7-3.2-1.1c0.4,1.9,1.1,4.7,2.2,7.3c0.8,1.9,2.3,3.6,3.3,4.6c7-2.5,12-9.1,12-17
		C38.7,10.6,30.6,2.5,20.7,2.5z"/>
</g>
</svg>
