<?xml version="1.0" encoding="utf-8"?>
<!-- Generator: Adobe Illustrator 19.0.0, SVG Export Plug-In . SVG Version: 6.00 Build 0)  -->
<svg version="1.1" id="圖層_1" xmlns="http://www.w3.org/2000/svg" xmlns:xlink="http://www.w3.org/1999/xlink" x="0px" y="0px"
	 viewBox="-2 3 35 35" style="enable-background:new -2 3 35 35;" xml:space="preserve">
<style type="text/css">
	.st0{opacity:0.9;fill:#1FA2FF;enable-background:new    ;}
</style>
<path class="st0" d="M20.7,19.7L20.7,19.7L20.7,19.7h-4.4v-4.4l0,0l0,0c0-0.4-0.4-0.8-0.8-0.8s-0.8,0.4-0.8,0.8l0,0l0,0v4.4h-4.4
	l0,0l0,0c-0.4,0-0.8,0.4-0.8,0.8s0.4,0.8,0.8,0.8l0,0l0,0h4.4v4.4l0,0l0,0c0,0.4,0.4,0.8,0.8,0.8s0.8-0.4,0.8-0.8l0,0l0,0v-4.4h4.4
	l0,0l0,0c0.4,0,0.8-0.4,0.8-0.8S21.2,19.7,20.7,19.7z"/>
</svg>
