<?xml version="1.0" encoding="utf-8"?>
<!-- Generator: Adobe Illustrator 19.0.0, SVG Export Plug-In . SVG Version: 6.00 Build 0)  -->
<svg version="1.1" id="圖層_1" xmlns="http://www.w3.org/2000/svg" xmlns:xlink="http://www.w3.org/1999/xlink" x="0px" y="0px"
	 viewBox="0 0 280 280" style="enable-background:new 0 0 280 280;" xml:space="preserve">
<style type="text/css">
	.st0{fill:#5D5F77;}
	.st1{opacity:0.85;fill:#FFFFFF;}
</style>
<circle id="XMLID_1_" class="st0" cx="140" cy="140" r="140"/>
<path id="XMLID_202_" class="st0" d="M139.6,159c48.5,0,89.4,32.4,102.2,76.8c23.4-25,37.8-58.7,37.8-95.6c0-77.3-62.7-140-140-140
	c-77.3,0-140,62.7-140,140c0,37,14.4,70.6,37.8,95.6C50.3,191.4,91.2,159,139.6,159z"/>
<circle id="XMLID_203_" class="st1" cx="139.6" cy="99.1" r="51.9"/>
<path id="XMLID_201_" class="st1" d="M139.6,280.1c40.3,0,76.6-17.1,102.2-44.4C229,191.4,188.1,159,139.6,159
	c-48.5,0-89.4,32.4-102.2,76.8C63,263,99.3,280.1,139.6,280.1z"/>
</svg>
