<?xml version="1.0" encoding="utf-8"?>
<!-- Generator: Adobe Illustrator 19.0.0, SVG Export Plug-In . SVG Version: 6.00 Build 0)  -->
<svg version="1.1" id="圖層_1" xmlns="http://www.w3.org/2000/svg" xmlns:xlink="http://www.w3.org/1999/xlink" x="0px" y="0px"
	 viewBox="-172 299 35 35" style="enable-background:new -172 299 35 35;" xml:space="preserve">
<style type="text/css">
	.st0{fill:none;stroke:#999999;stroke-miterlimit:10;}
</style>
<g id="XMLID_161_">
	<circle id="XMLID_165_" class="st0" cx="-154.5" cy="313.9" r="4.2"/>
	<g id="XMLID_162_">
		<path id="XMLID_164_" class="st0" d="M-154.5,318c3.9,0,7.1,2.6,8.2,6.1c1.9-2,3-4.7,3-7.6c0-6.2-5-11.2-11.2-11.2
			s-11.2,5-11.2,11.2c0,3,1.1,5.6,3,7.6C-161.6,320.6-158.4,318-154.5,318z"/>
		<path id="XMLID_163_" class="st0" d="M-154.5,327.7c3.2,0,6.1-1.4,8.2-3.5c-1-3.5-4.3-6.1-8.2-6.1s-7.1,2.6-8.2,6.1
			C-160.6,326.3-157.7,327.7-154.5,327.7z"/>
	</g>
</g>
</svg>
