<?xml version="1.0" encoding="utf-8"?>
<!-- Generator: Adobe Illustrator 19.0.0, SVG Export Plug-In . SVG Version: 6.00 Build 0)  -->
<svg version="1.1" id="圖層_1" xmlns="http://www.w3.org/2000/svg" xmlns:xlink="http://www.w3.org/1999/xlink" x="0px" y="0px"
	 viewBox="-107 104.9 380 632" style="enable-background:new -107 104.9 380 632;" xml:space="preserve">
<style type="text/css">
	.st0{fill:#FFFFFF;}
	.st1{opacity:0.9;}
	.st2{clip-path:url(#XMLID_2_);fill:#FFFFFF;}
	.st3{opacity:0.8;clip-path:url(#XMLID_2_);fill:url(#XMLID_3_);}
	.st4{clip-path:url(#XMLID_2_);fill:#12D8FA;}
	.st5{opacity:0.6;clip-path:url(#XMLID_2_);fill:url(#XMLID_4_);}
	.st6{opacity:0.5;clip-path:url(#XMLID_2_);fill:url(#XMLID_5_);}
</style>
<rect x="-107" y="104.9" class="st0" width="380" height="632"/>
<g class="st1">
	<g id="XMLID_3297_">
		<defs>
			<path id="XMLID_3296_" d="M268,737.2h-370c-2.8,0-5-2.2-5-5V109.6c0-2.8,2.2-5,5-5h370c2.8,0,5,2.2,5,5v622.6
				C273,735,270.8,737.2,268,737.2z"/>
		</defs>
		<clipPath id="XMLID_2_">
			<use xlink:href="#XMLID_3296_"  style="overflow:visible;"/>
		</clipPath>
		<rect id="XMLID_3302_" x="-161.3" y="33.3" class="st2" width="499.5" height="756"/>
		<linearGradient id="XMLID_3_" gradientUnits="userSpaceOnUse" x1="72.5005" y1="746.9744" x2="72.5005" y2="7.81">
			<stop  offset="0" style="stop-color:#0573FE"/>
			<stop  offset="1" style="stop-color:#2FF6F6"/>
		</linearGradient>
		<rect id="XMLID_901_" x="-149.5" y="7.8" class="st3" width="444" height="739.2"/>
		<path id="XMLID_3283_" class="st4" d="M335.2,43.8l-142,142c-12.5,12.5-32.9,12.5-45.4,0l-142-142C-6.6,31.3-6.6,10.8,5.8-1.7
			l142-142c12.5-12.5,32.9-12.5,45.4,0l142,142C347.7,10.8,347.7,31.3,335.2,43.8z"/>
		
			<linearGradient id="XMLID_4_" gradientUnits="userSpaceOnUse" x1="867.1571" y1="-8145.166" x2="458.6843" y2="-8145.166" gradientTransform="matrix(-4.489659e-011 -1 1 -4.489659e-011 8320.125 1473.1305)">
			<stop  offset="0" style="stop-color:#0573FE"/>
			<stop  offset="0.2039" style="stop-color:#0C89FD"/>
			<stop  offset="0.6243" style="stop-color:#1EC0F9"/>
			<stop  offset="1" style="stop-color:#2FF6F6"/>
		</linearGradient>
		<path id="XMLID_902_" class="st5" d="M358.8,859.7L224.5,994c-27.2,27.2-71.8,27.2-99,0L-8.9,859.7c-27.2-27.2-27.2-71.8,0-99
			l134.3-134.3c27.2-27.2,71.8-27.2,99,0l134.3,134.3C386,787.9,386,832.5,358.8,859.7z"/>
		
			<linearGradient id="XMLID_5_" gradientUnits="userSpaceOnUse" x1="9651.0977" y1="-8466.0078" x2="9651.0977" y2="-7849.7471" gradientTransform="matrix(-1 0 0 -1 9861.8584 -7803.3428)">
			<stop  offset="0" style="stop-color:#0573FE"/>
			<stop  offset="1" style="stop-color:#2FF6F6"/>
		</linearGradient>
		<path id="XMLID_3280_" class="st6" d="M-79.9,498.4L354.6,63.9c23.3-23.3,61.5-23.3,84.9,0l62,62c23.3,23.3,23.3,61.5,0,84.9
			L66.9,645.2c-23.3,23.3-61.5,23.3-84.9,0l-62-62C-103.2,559.9-103.2,521.7-79.9,498.4z"/>
		<path id="XMLID_3279_" class="st2" d="M-464.3,292.1L-175.8,3.6c30.2-30.2,79.7-30.2,109.9,0l288.5,288.5
			c30.2,30.2,30.2,79.7,0,109.9L-65.9,690.4c-30.2,30.2-79.7,30.2-109.9,0L-464.3,402C-494.5,371.8-494.5,322.3-464.3,292.1z"/>
	</g>
</g>
</svg>
