<?xml version="1.0" encoding="utf-8"?>
<!-- Generator: Adobe Illustrator 19.0.0, SVG Export Plug-In . SVG Version: 6.00 Build 0)  -->
<svg version="1.1" id="圖層_1" xmlns="http://www.w3.org/2000/svg" xmlns:xlink="http://www.w3.org/1999/xlink" x="0px" y="0px"
	 viewBox="-159 389.9 277 63" style="enable-background:new -159 389.9 277 63;" xml:space="preserve">
<style type="text/css">
	.st0{fill:#FFFFFF;}
	.st1{opacity:0.8;enable-background:new    ;}
	.st2{clip-path:url(#SVGID_2_);fill:url(#XMLID_2_);}
	.st3{opacity:0.1;fill:#FFFFFF;enable-background:new    ;}
	.st4{fill:#1FA2FF;}
</style>
<path class="st0" d="M86.5,452.1h-214c-16.9,0-30.7-13.8-30.7-30.7v0c0-16.9,13.8-30.7,30.7-30.7h214c16.9,0,30.7,13.8,30.7,30.7v0
	C117.3,438.3,103.4,452.1,86.5,452.1z"/>
<g id="XMLID_27_">
	<g id="XMLID_3304_">
		<path id="XMLID_3309_" class="st0" d="M-127.5,390.7c-16.9,0-30.7,13.8-30.7,30.7c0,16.9,13.8,30.8,30.8,30.8h93.6l61.5-61.5
			C27.7,390.7-127.5,390.7-127.5,390.7z"/>
	</g>
	<g id="XMLID_3265_" class="st1">
		<g>
			<defs>
				<path id="SVGID_1_" d="M27.6,390.7h-155.1c-16.9,0-30.7,13.8-30.7,30.7c0,16.9,13.8,30.8,30.8,30.8h93.6H4.5
					c5.8-6.1,12.4-12.5,18.2-20c11.6-15,13.2-26,13.5-41.5C36.2,390.7,27.6,390.7,27.6,390.7z"/>
			</defs>
			<clipPath id="SVGID_2_">
				<use xlink:href="#SVGID_1_"  style="overflow:visible;"/>
			</clipPath>
			
				<linearGradient id="XMLID_2_" gradientUnits="userSpaceOnUse" x1="8891.2549" y1="447.065" x2="9200.7549" y2="447.065" gradientTransform="matrix(4.489659e-011 1 1 -4.489659e-011 -505.1151 -8541.665)">
				<stop  offset="0" style="stop-color:#0573FE"/>
				<stop  offset="1" style="stop-color:#2FF6F6"/>
			</linearGradient>
			<rect id="XMLID_3169_" x="-184.7" y="349.6" class="st2" width="253.3" height="309.5"/>
		</g>
	</g>
	<path id="XMLID_3310_" class="st3" d="M37,390.7h-5l-61.5,61.5H5.3c5.8-6.1,12.4-12.5,18.2-20C35.2,417.1,36.8,406.1,37,390.7z"/>
	<path id="XMLID_3174_" class="st4" d="M78.1,423.9c2,0.2,3.5,0.4,3.9,0.4c1.7,0,5-1.4,5-3.1s-3.3-3.1-5-3.1c-0.4,0-1.9,0.1-3.9,0.4
		l-7.9-11.9c-0.6,0-1.6,0-2,0c-0.3,0,3.2,8.9,4.6,12.6c-3.2,0.4-6.6,0.8-9.2,1.3c-0.6-1-3-4.7-3.1-4.9c-0.2-0.3-1.4,0-1.7,0
		c-0.2,0,1.4,4.2,1.9,5.5c-0.6,0.1-0.9,0.3-0.9,0.4c0,0.1,0.3,0.2,0.9,0.4c-0.5,1.3-2.1,5.5-1.9,5.5c0.3,0,1.5,0.3,1.7,0
		c0.2-0.3,2.5-4,3.1-4.9c2.5,0.4,6,0.9,9.2,1.3c-1.4,3.6-4.9,12.6-4.6,12.6c0.4,0,1.4,0,2,0L78.1,423.9z"/>
	<g id="XMLID_54_">
		<path id="XMLID_55_" class="st0" d="M-103.6,411.4h8.7v2.9h-5.7v2.9h5.7v2.9h-5.7v4.2h5.7v3h-8.7
			C-103.6,427.3-103.6,411.4-103.6,411.4z"/>
		<path id="XMLID_57_" class="st0" d="M-89.9,411.4h2.9l6.8,10.4v-10.4h3v15.8H-80l-6.8-10.4v10.4h-3L-89.9,411.4L-89.9,411.4z"/>
		<path id="XMLID_59_" class="st0" d="M-72.9,411.4h8.8v3H-67v12.8h-3v-12.8h-2.8L-72.9,411.4L-72.9,411.4z"/>
		<path id="XMLID_61_" class="st0" d="M-59.8,411.4h8.7v2.9h-5.7v2.9h5.7v2.9h-5.7v4.2h5.7v3h-8.7V411.4z"/>
		<path id="XMLID_63_" class="st0" d="M-45.9,411.4h3.2c1.8,0,3,0.2,3.7,0.5c0.7,0.3,1.3,0.8,1.8,1.6c0.5,0.7,0.7,1.6,0.7,2.6
			s-0.3,1.9-0.8,2.6s-1.3,1.2-2.3,1.6l3.8,7H-39l-3.6-6.7h-0.3v6.7h-3V411.4z M-42.9,417.6h0.9c1,0,1.6-0.1,2-0.4s0.5-0.7,0.5-1.3
			c0-0.3-0.1-0.6-0.3-0.9c-0.2-0.3-0.4-0.4-0.7-0.5c-0.3-0.1-0.9-0.2-1.7-0.2H-43L-42.9,417.6L-42.9,417.6z"/>
	</g>
</g>
</svg>
