<?xml version="1.0" encoding="utf-8"?>
<!-- Generator: Adobe Illustrator 19.0.0, SVG Export Plug-In . SVG Version: 6.00 Build 0)  -->
<svg version="1.1" id="圖層_1" xmlns="http://www.w3.org/2000/svg" xmlns:xlink="http://www.w3.org/1999/xlink" x="0px" y="0px"
	 viewBox="0 0 50 50" style="enable-background:new 0 0 50 50;" xml:space="preserve">
<style type="text/css">
	.st0{fill:none;stroke:#5D5F77;stroke-miterlimit:10;}
	.st1{fill:#5D5F77;}
</style>
<g id="XMLID_3227_">
	<g id="XMLID_3223_">
		<path id="XMLID_3226_" class="st0" d="M20.5,15.4h-7.1c-0.6,0-1.1,0.5-1.1,1.1v19c0,0.6,0.5,1.1,1.1,1.1h20.4
			c0.6,0,1.1-0.5,1.1-1.1v-6.8"/>
		<g id="XMLID_3233_">
			<polyline id="XMLID_5_" class="st0" points="20.6,24.6 22.3,26.3 22.8,26.9 24.5,28.5 			"/>
			<path id="XMLID_4_" class="st0" d="M24.5,28.5l1.7-1.7l8.6-8.6l1.5-1.5c0.4-0.4,0.4-1.1,0-1.5l-2.4-2.4c-0.4-0.4-1.1-0.4-1.5,0
				l-1.5,1.5L22.3,23l-1.7,1.7"/>
			<polyline id="XMLID_3_" class="st0" points="24.8,28.4 19.2,30 20.7,24.4 			"/>
			<line id="XMLID_3234_" class="st0" x1="30.5" y1="14.7" x2="34.5" y2="18.6"/>
		</g>
	</g>
</g>
<circle id="XMLID_1_" class="st1" cx="20.5" cy="15.4" r="0.5"/>
<circle id="XMLID_6_" class="st1" cx="34.9" cy="28.7" r="0.5"/>
</svg>
