<?xml version="1.0" encoding="utf-8"?>
<!-- Generator: Adobe Illustrator 19.0.0, SVG Export Plug-In . SVG Version: 6.00 Build 0)  -->
<svg version="1.1" id="圖層_1" xmlns="http://www.w3.org/2000/svg" xmlns:xlink="http://www.w3.org/1999/xlink" x="0px" y="0px"
	 viewBox="0 0 40 40" style="enable-background:new 0 0 40 40;" xml:space="preserve">
<style type="text/css">
	.st0{fill:#FFFFFF;}
</style>
<g id="XMLID_3081_">
	<path id="XMLID_3090_" class="st0" d="M10.9,14.1c-0.6,0-1,0.5-1,1V17c0,0.1,0,0.3,0.1,0.4c2.3-0.5,5.4-0.9,9.5-1v-1.3c0,0,0,0,0,0
		c0-0.6-0.5-1-1-1H10.9z"/>
	<path id="XMLID_3089_" class="st0" d="M8.7,17v-1.9c0-1.2,1-2.2,2.2-2.2h7.5c0.6,0,1.2,0.3,1.6,0.7c0.4-0.4,1-0.7,1.6-0.7h7.5
		c1.2,0,2.2,1,2.2,2.2V17c0,0.2,0,0.4-0.1,0.7c0.8,0.2,1.4,0.4,1.9,0.6V12c0-0.2-0.1-0.3-0.3-0.3H7.1c-0.2,0-0.3,0.1-0.3,0.3v6.3
		c0.5-0.2,1.2-0.4,2-0.6C8.8,17.5,8.7,17.3,8.7,17z"/>
	<path id="XMLID_3088_" class="st0" d="M30.1,17.4c0-0.1,0.1-0.2,0.1-0.4v-1.9c0-0.6-0.5-1-1-1h-7.5c-0.6,0-1,0.4-1,1c0,0,0,0,0,0
		v1.3C24.7,16.5,27.8,16.9,30.1,17.4z"/>
	<path id="XMLID_3087_" class="st0" d="M4.9,27.8c0,0.1,0,0.4,0,0.5c0,0,0.1,0,0.1,0h0.7c0.1,0,0.1,0,0.2,0c0,0,0-0.1,0.1-0.3
		C6,27.6,6,27.5,6.1,27.4c0-0.1,0-0.2,0.1-0.5c0.2-1.1,1.3-1.1,2.3-1.1h11.5h11.6c1,0,2,0,2.3,1.1c0.1,0.3,0.1,0.4,0.1,0.6
		c0,0.1,0,0.3,0.1,0.7c0,0.2,0.1,0.3,0.1,0.3c0,0,0.1,0,0.1,0H35c0,0,0.1,0,0.1,0c0-0.1,0-0.4,0-0.5v-3.5H4.9V27.8z"/>
	<path id="XMLID_3086_" class="st0" d="M34.1,19.9c0,0-4.4-2.3-14.1-2.3c-9.7,0-14.1,2.3-14.1,2.3c-0.4,0.2-1,0.8-1,1.5v1.7h30.2
		v-1.7C35.1,20.8,34.5,20.2,34.1,19.9z"/>
	<path id="XMLID_3082_" class="st0" d="M6.8,12c0-0.2,0.1-0.3,0.3-0.3h25.7c0.2,0,0.3,0.1,0.3,0.3v6.3c-0.5-0.2-1.1-0.4-1.9-0.6
		c0.1-0.2,0.1-0.4,0.1-0.7v-1.9c0-1.2-1-2.2-2.2-2.2h-7.5c-0.6,0-1.2,0.3-1.6,0.7c-0.4-0.4-1-0.7-1.6-0.7h-7.5c-1.2,0-2.2,1-2.2,2.2
		V17c0,0.2,0,0.4,0.1,0.6c-0.8,0.2-1.5,0.4-2,0.6V12z M35.1,27.8c0,0.1,0,0.4,0,0.5c0,0-0.1,0-0.1,0h-0.7c0,0-0.1,0-0.1,0
		c0,0-0.1-0.1-0.1-0.3c-0.1-0.4-0.1-0.5-0.1-0.7c0-0.1,0-0.2-0.1-0.6c-0.2-1.1-1.3-1.1-2.3-1.1H19.9H8.5c-1,0-2,0-2.3,1.1
		c-0.1,0.3-0.1,0.4-0.1,0.5c0,0.1,0,0.3-0.1,0.7c0,0.2-0.1,0.2-0.1,0.3c0,0-0.1,0-0.2,0H5c0,0-0.1,0-0.1,0c0-0.1,0-0.4,0-0.5v-3.5
		h30.2V27.8z M35.1,23.1H4.9v-1.7c0-0.6,0.6-1.3,1-1.5c0,0,4.4-2.3,14.1-2.3c9.7,0,14.1,2.3,14.1,2.3c0.4,0.2,1,0.8,1,1.5V23.1z"/>
</g>
</svg>
