<?xml version="1.0" encoding="utf-8"?>
<!-- Generator: Adobe Illustrator 19.0.0, SVG Export Plug-In . SVG Version: 6.00 Build 0)  -->
<svg version="1.1" id="圖層_1" xmlns="http://www.w3.org/2000/svg" xmlns:xlink="http://www.w3.org/1999/xlink" x="0px" y="0px"
	 viewBox="0 0 40 40" style="enable-background:new 0 0 40 40;" xml:space="preserve">
<style type="text/css">
	.st0{fill:#FFFFFF;}
</style>
<path id="XMLID_3109_" class="st0" d="M16.6,17.7l5.4-3.1l0.5,0.9l-3.9,2.3h2.2l2.3-1.4l0.5,0.9l-0.9,0.5H26l0.2-0.1l0.1,0.1h4.1
	c0-0.3-0.1-0.6-0.2-0.8l-4.1-6.9c-0.5-0.8-1.5-1.1-2.3-0.6L9.6,17.7H16.6z M25.3,16.9L25.1,17l-0.4-0.1l-0.4-0.6l0.9-0.6l0.6,0.9
	L25.3,16.9L25.3,16.9z M25.1,12l2.8,4.8l-0.9,0.5l-2.8-4.8L25.1,12z M24.1,13.9l0.4,0.6L24.4,15l-0.6,0.4l-0.6-0.9L24.1,13.9z
	 M23,12.1l0.4,0.6l-0.1,0.4l-0.6,0.4l-0.6-0.9L23,12.1z"/>
<path id="XMLID_3096_" class="st0" d="M32.7,19.1c-0.1-0.1-0.1-0.1-0.2-0.2c-0.3-0.2-0.7-0.2-1.7-0.2c-0.1,0-0.2,0-0.2,0H29l0,0
	h-0.7l0,0h-4.8l0,0h-2l0,0h-2.2l0,0h-2l0,0h-6.9l0,0h-2c-1,0-1.8,0.8-1.8,1.8v8.4c0,1,0.8,1.8,1.8,1.8h23.1c1,0,1.8-0.8,1.8-1.8
	v-8.4c0-0.5-0.2-0.9-0.5-1.2C32.8,19.2,32.8,19.2,32.7,19.1z M11.9,23.4h-1v3.6h-1v-3.6H8.9v-1h2.9V23.4z M13.3,27.1h-1v-4.5h1V27.1
	z M15.4,27.2c-1.5,0-1.5-1.6-1.5-2.5c0-1.8,0.3-2.3,1.5-2.3c1,0,1.5,0.6,1.5,1.7h-1c0-0.7-0.2-0.7-0.5-0.7c-0.1,0-0.3,0-0.4,0
	c0,0-0.1,0.2-0.1,1.2c0,1.5,0.2,1.5,0.5,1.5c0.6,0,0.6-0.1,0.6-0.6h1C17.1,26.2,16.9,27.2,15.4,27.2z M19.9,27.3l-1.3-2l-0.2-0.4
	v0.7v1.5h-1v-4.6h1V24l1.4-1.7l0.8,0.6l-1.2,1.5l1.5,2.3L19.9,27.3z M23.7,23.4h-1.8v0.9h1.4v1h-1.4v0.9h1.8v1h-2.8v-4.7h2.8V23.4z
	 M27.2,23.4h-1v3.6h-1v-3.6h-0.9v-1h2.9V23.4z M28.9,28.6h-0.5l0-1l1,0l0,1L28.9,28.6z M28.9,26.4h-0.5l0-1l1,0l0,1L28.9,26.4z
	 M28.9,24.2h-0.5l0-1l1,0l0,1L28.9,24.2z M28.9,21.9h-0.5l0-1l1,0l0,1L28.9,21.9z M31.4,27.7h-1v-5.9h1V27.7z"/>
</svg>
