<?xml version="1.0" encoding="utf-8"?>
<!-- Generator: Adobe Illustrator 19.0.0, SVG Export Plug-In . SVG Version: 6.00 Build 0)  -->
<svg version="1.1" id="圖層_1" xmlns="http://www.w3.org/2000/svg" xmlns:xlink="http://www.w3.org/1999/xlink" x="0px" y="0px"
	 viewBox="0 0 40 40" style="enable-background:new 0 0 40 40;" xml:space="preserve">
<style type="text/css">
	.st0{fill:#FFFFFF;}
</style>
<g id="XMLID_2938_">
	<circle id="XMLID_3134_" class="st0" cx="20" cy="21.3" r="3.8"/>
	<path id="XMLID_3142_" class="st0" d="M30,13.8h-3c-0.4,0-0.9-0.3-1-0.7l-0.8-2.3c-0.1-0.4-0.6-0.7-1-0.7h-8.5
		c-0.4,0-0.9,0.3-1,0.7L14,13c-0.1,0.4-0.6,0.7-1,0.7h-3c-1.4,0-2.5,1.1-2.5,2.5v11.3c0,1.4,1.1,2.5,2.5,2.5h20
		c1.4,0,2.5-1.1,2.5-2.5V16.3C32.5,14.9,31.4,13.8,30,13.8z M20,27.5c-3.5,0-6.3-2.8-6.3-6.3c0-3.5,2.8-6.3,6.3-6.3
		c3.5,0,6.3,2.8,6.3,6.3C26.3,24.7,23.5,27.5,20,27.5z M30,17.1c0,0.5-0.4,0.9-0.9,0.9c0,0,0,0,0,0c0,0,0,0,0,0
		c-0.5,0-0.9-0.4-0.9-0.9c0-0.5,0.4-0.9,0.9-0.9C29.6,16.2,30,16.6,30,17.1C30,17.1,30,17.1,30,17.1C30,17.1,30,17.1,30,17.1z"/>
</g>
</svg>
