<?xml version="1.0" encoding="utf-8"?>
<!-- Generator: Adobe Illustrator 19.0.0, SVG Export Plug-In . SVG Version: 6.00 Build 0)  -->
<svg version="1.1" id="圖層_1" xmlns="http://www.w3.org/2000/svg" xmlns:xlink="http://www.w3.org/1999/xlink" x="0px" y="0px"
	 viewBox="-280 403.9 35 35" style="enable-background:new -280 403.9 35 35;" xml:space="preserve">
<style type="text/css">
	.st0{fill:none;stroke:#999999;stroke-width:0.5;stroke-miterlimit:10;}
	.st1{fill:#999999;}
</style>
<g>
	<g id="XMLID_148_">
		<circle id="XMLID_160_" class="st0" cx="-262.5" cy="421.4" r="12.5"/>
	</g>
</g>
<g>
	<path class="st1" d="M-272.1,417.5h1.8c1.2,0,2,0.1,2.6,0.4c0.6,0.3,1,0.8,1.4,1.4c0.4,0.7,0.6,1.4,0.6,2.3c0,0.6-0.1,1.2-0.3,1.7
		c-0.2,0.5-0.5,1-0.9,1.3c-0.4,0.3-0.8,0.6-1.2,0.7c-0.4,0.1-1.2,0.2-2.2,0.2h-1.8V417.5z M-270.5,418.9v5.1h0.7
		c0.7,0,1.2-0.1,1.5-0.2s0.6-0.4,0.8-0.8c0.2-0.4,0.3-0.8,0.3-1.4c0-0.9-0.2-1.5-0.7-2c-0.4-0.4-1.1-0.6-2.1-0.6H-270.5z"/>
	<path class="st1" d="M-262.6,417.5h1.6l3.1,8.1h-1.6l-0.6-1.7h-3.3l-0.7,1.7h-1.6L-262.6,417.5z M-261.8,419.6l-1.1,2.8h2.2
		L-261.8,419.6z"/>
	<path class="st1" d="M-258.7,417.5h1.6l1.5,2.9l1.5-2.9h1.6l-2.4,4.6v3.5h-1.5V422L-258.7,417.5z"/>
</g>
</svg>
