<?xml version="1.0" encoding="utf-8"?>
<!-- Generator: Adobe Illustrator 19.0.0, SVG Export Plug-In . SVG Version: 6.00 Build 0)  -->
<svg version="1.1" id="圖層_1" xmlns="http://www.w3.org/2000/svg" xmlns:xlink="http://www.w3.org/1999/xlink" x="0px" y="0px"
	 viewBox="-280 403.9 35 35" style="enable-background:new -280 403.9 35 35;" xml:space="preserve">
<style type="text/css">
	.st0{fill:none;stroke:#999999;stroke-width:0.5;stroke-miterlimit:10;}
	.st1{fill:#999999;}
</style>
<g>
	<g id="XMLID_148_">
		<circle id="XMLID_160_" class="st0" cx="-262.5" cy="421.4" r="12.5"/>
	</g>
	<path id="XMLID_3174_" class="st1" d="M-261.3,418.7c0.1-1,0.2-1.8,0.2-2c0-0.9-0.7-2.6-1.6-2.6c-0.9,0-1.6,1.7-1.6,2.6
		c0,0.2,0.1,1,0.2,2l-6.1,4c0,0.3,0,0.8,0,1c0,0.2,4.5-1.6,6.4-2.3c0.2,1.6,0.4,3.4,0.7,4.7c-0.5,0.3-2.4,1.5-2.5,1.6
		c-0.2,0.1,0,0.7,0,0.9c0,0.1,2.1-0.7,2.8-1c0.1,0.3,0.2,0.5,0.2,0.5s0.1-0.2,0.2-0.5c0.7,0.3,2.8,1.1,2.8,1c0-0.2,0.2-0.8,0-0.9
		c-0.2-0.1-2-1.3-2.5-1.6c0.2-1.3,0.5-3.1,0.7-4.7c1.8,0.7,6.4,2.5,6.4,2.3c0-0.2,0-0.7,0-1L-261.3,418.7z"/>
</g>
</svg>
