<?xml version="1.0" encoding="utf-8"?>
<!-- Generator: Adobe Illustrator 19.0.0, SVG Export Plug-In . SVG Version: 6.00 Build 0)  -->
<svg version="1.1" id="圖層_1" xmlns="http://www.w3.org/2000/svg" xmlns:xlink="http://www.w3.org/1999/xlink" x="0px" y="0px"
	 viewBox="-92 220 194 194" style="enable-background:new -92 220 194 194;" xml:space="preserve">
<style type="text/css">
	.st0{fill:url(#XMLID_2_);}
	.st1{enable-background:new    ;}
	.st2{fill:#FFFFFF;}
	.st3{opacity:0.2;fill:#FFFFFF;enable-background:new    ;}
</style>
<g id="XMLID_624_">
	<g id="XMLID_742_">
		
			<linearGradient id="XMLID_2_" gradientUnits="userSpaceOnUse" x1="-91" y1="319" x2="101" y2="319" gradientTransform="matrix(1 0 0 -1 0 636)">
			<stop  offset="0" style="stop-color:#0573FE"/>
			<stop  offset="3.928095e-002" style="stop-color:#087CFD"/>
			<stop  offset="0.2574" style="stop-color:#16A7FB"/>
			<stop  offset="0.4682" style="stop-color:#21C9F9"/>
			<stop  offset="0.6672" style="stop-color:#29E2F7"/>
			<stop  offset="0.8496" style="stop-color:#2DF1F6"/>
			<stop  offset="1" style="stop-color:#2FF6F6"/>
		</linearGradient>
		<path id="XMLID_3183_" class="st0" d="M-10.3,406.7l-74.4-74.4c-8.4-8.4-8.4-22.2,0-30.6l74.4-74.4c8.4-8.4,22.2-8.4,30.6,0
			l74.4,74.4c8.4,8.4,8.4,22.2,0,30.6l-74.4,74.4C11.9,415.1-1.9,415.1-10.3,406.7z"/>
		<g class="st1">
			<path class="st2" d="M9.5,309.7h7.8v2.6h-5.1v2.6h5.1v2.6h-5.1v3.7h5.1v2.6H9.5V309.7z"/>
			<path class="st2" d="M20.8,309.7h2.6l6.1,9.3v-9.3h2.7v14.1h-2.6l-6.1-9.3v9.3h-2.7V309.7z"/>
			<path class="st2" d="M35,309.7h7.9v2.7h-2.6v11.5h-2.7v-11.5H35V309.7z"/>
			<path class="st2" d="M45.7,309.7h7.8v2.6h-5.1v2.6h5.1v2.6h-5.1v3.7h5.1v2.6h-7.8V309.7z"/>
			<path class="st2" d="M57.2,309.7H60c1.6,0,2.7,0.1,3.4,0.4s1.2,0.7,1.6,1.4c0.4,0.6,0.6,1.4,0.6,2.3c0,0.9-0.2,1.7-0.7,2.3
				c-0.4,0.6-1.1,1.1-2,1.4l3.4,6.3h-3l-3.2-6h-0.2v6h-2.7V309.7z M59.9,315.2h0.8c0.9,0,1.5-0.1,1.8-0.3c0.3-0.2,0.5-0.6,0.5-1.1
				c0-0.3-0.1-0.6-0.2-0.8c-0.2-0.2-0.4-0.4-0.6-0.5c-0.3-0.1-0.8-0.1-1.5-0.1h-0.7V315.2z"/>
		</g>
		<path id="XMLID_3179_" class="st2" d="M-21.9,322.3c3.5,0.4,6.1,0.6,6.9,0.6c3.1,0,8.9-2.5,8.9-5.5c0-3.1-5.8-5.5-8.9-5.5
			c-0.7,0-3.3,0.2-6.9,0.6l-13.8-21c-1.1-0.1-2.9,0-3.5,0c-0.5,0,5.6,15.7,8,22c-5.6,0.7-11.6,1.5-16.1,2.2
			c-1.1-1.7-5.2-8.2-5.5-8.6c-0.3-0.5-2.5-0.1-3,0c-0.4,0.1,2.4,7.4,3.3,9.6c-1,0.2-1.6,0.5-1.6,0.6c0,0.1,0.6,0.4,1.6,0.6
			c-0.9,2.3-3.6,9.6-3.3,9.6c0.5,0.1,2.7,0.5,3,0c0.3-0.4,4.4-7,5.5-8.6c4.5,0.7,10.5,1.5,16.1,2.2c-2.5,6.3-8.6,22-8,22
			s2.4,0.1,3.5,0L-21.9,322.3z"/>
	</g>
	<path id="XMLID_776_" class="st3" d="M94.7,301.7l-59.9-59.9L3.7,272.9c-24,24-24,63.3,0,87.3l31.5,31.5l59.4-59.4
		C103.1,323.9,103.1,310.1,94.7,301.7z"/>
</g>
</svg>
