<?xml version="1.0" encoding="utf-8"?>
<!-- Generator: Adobe Illustrator 19.0.0, SVG Export Plug-In . SVG Version: 6.00 Build 0)  -->
<svg version="1.1" id="圖層_1" xmlns="http://www.w3.org/2000/svg" xmlns:xlink="http://www.w3.org/1999/xlink" x="0px" y="0px"
	 viewBox="-172 299 35 35" style="enable-background:new -172 299 35 35;" xml:space="preserve">
<style type="text/css">
	.st0{opacity:0.87;fill:#5D5F77;}
</style>
<path id="XMLID_3158_" class="st0" d="M-150.8,318.5c1.4,0.2,2.4,0.2,2.7,0.2c1.2,0,3.5-1,3.5-2.2s-2.3-2.2-3.5-2.2
	c-0.3,0-1.3,0.1-2.7,0.2l-5.5-8.4c-0.4,0-1.1,0-1.4,0c-0.2,0,2.2,6.3,3.2,8.8c-2.2,0.3-4.6,0.6-6.4,0.9c-0.4-0.7-2.1-3.3-2.2-3.4
	c-0.1-0.2-1,0-1.2,0s1,2.9,1.3,3.8c-0.4,0.1-0.6,0.2-0.6,0.3s0.2,0.2,0.6,0.3c-0.3,0.9-1.5,3.8-1.3,3.8s1.1,0.2,1.2,0
	c0.1-0.2,1.8-2.8,2.2-3.4c1.8,0.3,4.2,0.6,6.4,0.9c-1,2.5-3.4,8.8-3.2,8.8c0.3,0,1,0,1.4,0L-150.8,318.5z"/>
</svg>
