<?xml version="1.0" encoding="utf-8"?>
<!-- Generator: Adobe Illustrator 19.0.0, SVG Export Plug-In . SVG Version: 6.00 Build 0)  -->
<svg version="1.1" id="圖層_1" xmlns="http://www.w3.org/2000/svg" xmlns:xlink="http://www.w3.org/1999/xlink" x="0px" y="0px"
	 viewBox="0 0 35 35" style="enable-background:new 0 0 35 35;" xml:space="preserve">
<style type="text/css">
	.st0{fill:none;stroke:#6D6D6D;stroke-miterlimit:10;}
</style>
<g id="XMLID_161_">
	<circle id="XMLID_165_" class="st0" cx="17.5" cy="14.9" r="4.2"/>
	<g id="XMLID_162_">
		<path id="XMLID_164_" class="st0" d="M17.5,19c3.9,0,7.1,2.6,8.2,6.1c1.9-2,3-4.7,3-7.6c0-6.2-5-11.2-11.2-11.2
			c-6.2,0-11.2,5-11.2,11.2c0,3,1.1,5.6,3,7.6C10.4,21.6,13.6,19,17.5,19z"/>
		<path id="XMLID_163_" class="st0" d="M17.5,28.7c3.2,0,6.1-1.4,8.2-3.5c-1-3.5-4.3-6.1-8.2-6.1c-3.9,0-7.1,2.6-8.2,6.1
			C11.4,27.3,14.3,28.7,17.5,28.7z"/>
	</g>
</g>
</svg>
