<?xml version="1.0" encoding="utf-8"?>
<!-- Generator: Adobe Illustrator 19.0.0, SVG Export Plug-In . SVG Version: 6.00 Build 0)  -->
<svg version="1.1" id="圖層_1" xmlns="http://www.w3.org/2000/svg" xmlns:xlink="http://www.w3.org/1999/xlink" x="0px" y="0px"
	 viewBox="178 -145 380 314" style="enable-background:new 178 -145 380 314;" xml:space="preserve">
<style type="text/css">
	.st0{fill:none;}
	.st1{clip-path:url(#SVGID_2_);fill:#F1F3F7;}
	.st2{clip-path:url(#SVGID_4_);fill:#F9FBFD;}
	.st3{clip-path:url(#SVGID_6_);fill:#F9FBFD;}
	.st4{clip-path:url(#SVGID_8_);fill:url(#XMLID_2_);}
	.st5{clip-path:url(#SVGID_10_);fill:#F9FBFD;}
	.st6{clip-path:url(#SVGID_12_);fill:#FFFFFF;}
	.st7{clip-path:url(#SVGID_14_);fill:none;}
	.st8{opacity:0.2;clip-path:url(#SVGID_16_);fill:#FFFFFF;enable-background:new    ;}
	.st9{opacity:0.2;clip-path:url(#SVGID_18_);fill:#FFFFFF;enable-background:new    ;}
</style>
<rect x="178" y="-195" class="st0" width="380" height="440.9"/>
<g>
	<defs>
		<rect id="SVGID_1_" x="178" y="-195" width="380" height="632"/>
	</defs>
	<clipPath id="SVGID_2_">
		<use xlink:href="#SVGID_1_"  style="overflow:visible;"/>
	</clipPath>
	<rect id="XMLID_3189_" x="168.1" y="-271.9" class="st1" width="414.5" height="728.5"/>
</g>
<g>
	<defs>
		<rect id="SVGID_3_" x="178" y="-195" width="380" height="632"/>
	</defs>
	<clipPath id="SVGID_4_">
		<use xlink:href="#SVGID_3_"  style="overflow:visible;"/>
	</clipPath>
	<path id="XMLID_3188_" class="st2" d="M498,281.2l142,142c12.5,12.5,12.5,32.9,0,45.4l-142,142c-12.5,12.5-32.9,12.5-45.4,0
		l-142-142c-12.5-12.5-12.5-32.9,0-45.4l142-142C465.1,268.7,485.5,268.7,498,281.2z"/>
</g>
<g>
	<defs>
		<rect id="SVGID_5_" x="178" y="-195" width="380" height="632"/>
	</defs>
	<clipPath id="SVGID_6_">
		<use xlink:href="#SVGID_5_"  style="overflow:visible;"/>
	</clipPath>
	<path id="XMLID_3187_" class="st3" d="M461.1-502.1l193.5,193.5c8.1,8.1,8.1,21.2,0,29.3L461.1-85.7c-8.1,8.1-21.2,8.1-29.3,0
		L238.3-279.2c-8.1-8.1-8.1-21.2,0-29.3L431.8-502C439.8-510.1,453-510.1,461.1-502.1z"/>
</g>
<g>
	<g>
		<defs>
			<rect id="SVGID_7_" x="178" y="-195" width="380" height="632"/>
		</defs>
		<clipPath id="SVGID_8_">
			<use xlink:href="#SVGID_7_"  style="overflow:visible;"/>
		</clipPath>
		
			<linearGradient id="XMLID_2_" gradientUnits="userSpaceOnUse" x1="-128.05" y1="6.4251" x2="-128.05" y2="-519.35" gradientTransform="matrix(-4.489659e-011 -1 -1 4.489659e-011 300.0876 -444.0625)">
			<stop  offset="0" style="stop-color:#0573FE"/>
			<stop  offset="1" style="stop-color:#2FF6F6"/>
		</linearGradient>
		<path id="XMLID_3186_" class="st4" d="M806.5-284.7L587.9-66.1c-17.2,17.2-45.4,17.2-62.7,0L306.6-284.7
			c-17.2-17.2-17.2-45.4,0-62.7L525.2-566c17.2-17.2,45.4-17.2,62.7,0l218.6,218.6C823.8-330.2,823.8-302,806.5-284.7z"/>
	</g>
	<g>
		<g>
			<g>
				<defs>
					<rect id="SVGID_9_" x="178" y="-195" width="380" height="632"/>
				</defs>
				<clipPath id="SVGID_10_">
					<use xlink:href="#SVGID_9_"  style="overflow:visible;"/>
				</clipPath>
				<path id="XMLID_3185_" class="st5" d="M306.4-189l475.3,475.3c12.1,12.1,12.1,31.9,0,44l-80.5,80.5c-12.1,12.1-31.9,12.1-44,0
					L182-64.6c-12.1-12.1-12.1-31.9,0-44l80.5-80.4C274.6-201.2,294.3-201.2,306.4-189z"/>
			</g>
			<g>
				<g>
					<g>
						<defs>
							<rect id="SVGID_11_" x="178" y="-195" width="380" height="632"/>
						</defs>
						<clipPath id="SVGID_12_">
							<use xlink:href="#SVGID_11_"  style="overflow:visible;"/>
						</clipPath>
						<path id="XMLID_3184_" class="st6" d="M504.4,205.7l-323.1,323c-25.5,25.5-67.2,25.5-92.7,0l-323.1-323.1
							c-25.5-25.5-25.5-67.2,0-92.7L88.6-210.2c25.5-25.5,67.2-25.5,92.7,0L504.4,113C529.9,138.5,529.9,180.2,504.4,205.7z"/>
					</g>
					<g>
						<g>
							<g>
								<defs>
									<rect id="SVGID_13_" x="178" y="-195" width="380" height="632"/>
								</defs>
								<clipPath id="SVGID_14_">
									<use xlink:href="#SVGID_13_"  style="overflow:visible;"/>
								</clipPath>
								<path id="XMLID_627_" class="st7" d="M183-195.4h370c2.8,0,5,2.2,5,5v622.6c0,2.8-2.2,5-5,5H183c-2.8,0-5-2.2-5-5v-622.6
									C178-193.2,180.2-195.4,183-195.4z"/>
							</g>
							<g>
								<g>
									<g>
										<defs>
											<rect id="SVGID_15_" x="178" y="-195" width="380" height="632"/>
										</defs>
										<clipPath id="SVGID_16_">
											<use xlink:href="#SVGID_15_"  style="overflow:visible;"/>
										</clipPath>
										<path id="XMLID_744_" class="st8" d="M22.5-32.4L110.8,56c24,24,63.3,24,87.3,0l57-57l-59.9-59.9
											c-8.4-8.4-8.4-22.2,0-30.6l59.5-59.5l-56.8-56.8c-24-24-63.3-24-87.3,0l-88.1,88.1C-1.6-95.7-1.6-56.4,22.5-32.4z"/>
									</g>
									<g>
										<g id="XMLID_3275_">
											<g>
												<defs>
													<rect id="SVGID_17_" x="178" y="-195" width="380" height="632"/>
												</defs>
												<clipPath id="SVGID_18_">
													<use xlink:href="#SVGID_17_"  style="overflow:visible;"/>
												</clipPath>
												<path id="XMLID_1634_" class="st9" d="M195.3-60.9L255.2-1l31.1-31.1c24-24,24-63.3,0-87.3l-31.5-31.5l-59.4,59.4
													C186.8-83.2,186.8-69.4,195.3-60.9z"/>
											</g>
										</g>
									</g>
								</g>
							</g>
						</g>
					</g>
				</g>
			</g>
		</g>
	</g>
</g>
</svg>
