<?xml version="1.0" encoding="utf-8"?>
<!-- Generator: Adobe Illustrator 19.0.0, SVG Export Plug-In . SVG Version: 6.00 Build 0)  -->
<svg version="1.1" id="圖層_1" xmlns="http://www.w3.org/2000/svg" xmlns:xlink="http://www.w3.org/1999/xlink" x="0px" y="0px"
	 viewBox="0 0 40 40" style="enable-background:new 0 0 40 40;" xml:space="preserve">
<style type="text/css">
	.st0{fill:#FFFFFF;}
</style>
<g id="XMLID_338_">
	<path id="XMLID_1873_" class="st0" d="M26.9,30.4c-0.1,0-0.2,0-0.3,0C26.8,30.5,26.9,30.4,26.9,30.4z"/>
	<path id="XMLID_1871_" class="st0" d="M33.8,9.5c0.3,0,0.6,0.1,0.8,0.3C34.3,9.7,34.1,9.5,33.8,9.5z"/>
	<path id="XMLID_1320_" class="st0" d="M34.5,9.9c0.2,0.2,0.3,0.5,0.2,0.7C34.8,10.3,34.7,10.1,34.5,9.9z"/>
	<polygon id="XMLID_1318_" class="st0" points="27.2,14.5 13.6,21.5 14.6,27.4 16.1,22.7 	"/>
	<polygon id="XMLID_533_" class="st0" points="21,25.3 21,25.3 26.5,29 32.9,11.9 17.7,23.1 	"/>
	<polygon id="XMLID_423_" class="st0" points="15.6,28.5 19.5,25.8 17,24.1 	"/>
	<polygon id="XMLID_421_" class="st0" points="5.2,16.7 12.9,20.5 30.2,11.6 	"/>
	<path id="XMLID_418_" class="st0" d="M26.9,30.4c0.2-0.1,0.5-0.3,0.6-0.6C27.4,30.2,27.2,30.3,26.9,30.4z"/>
</g>
</svg>
