<?xml version="1.0" encoding="utf-8"?>
<!-- Generator: Adobe Illustrator 19.0.0, SVG Export Plug-In . SVG Version: 6.00 Build 0)  -->
<svg version="1.1" id="圖層_1" xmlns="http://www.w3.org/2000/svg" xmlns:xlink="http://www.w3.org/1999/xlink" x="0px" y="0px"
	 viewBox="0 0 40 40" style="enable-background:new 0 0 40 40;" xml:space="preserve">
<style type="text/css">
	.st0{fill:#FFFFFF;stroke:#FFFFFF;stroke-width:0.2;stroke-miterlimit:10;}
</style>
<g id="XMLID_3004_">
	<rect id="XMLID_3025_" x="35.4" y="22" class="st0" width="1.4" height="0.8"/>
	<path id="XMLID_3022_" class="st0" d="M29.9,22.5c-1.7,0-3.1,1.4-3.1,3.1s1.4,3.1,3.1,3.1c1.7,0,3.1-1.4,3.1-3.1
		S31.6,22.5,29.9,22.5z M29.9,28c-1.4,0-2.5-1.1-2.5-2.5c0-1.4,1.1-2.5,2.5-2.5s2.5,1.1,2.5,2.5C32.4,26.9,31.3,28,29.9,28z"/>
	<path id="XMLID_3019_" class="st0" d="M9.9,22.5c-1.7,0-3.1,1.4-3.1,3.1s1.4,3.1,3.1,3.1s3.1-1.4,3.1-3.1S11.6,22.5,9.9,22.5z
		 M9.9,28c-1.4,0-2.5-1.1-2.5-2.5c0-1.4,1.1-2.5,2.5-2.5s2.5,1.1,2.5,2.5C12.4,26.9,11.3,28,9.9,28z"/>
	<path id="XMLID_3015_" class="st0" d="M9.9,21.2c2.4,0,4.3,1.9,4.3,4.3c0,0.2,0,0.3-0.1,0.5h11.4c0-0.2-0.1-0.3-0.1-0.5
		c0-2.4,1.9-4.3,4.3-4.3s4.3,1.9,4.3,4.3c0,0.2,0,0.3-0.1,0.5H38l-0.1-1.1l-0.1,0v0c0,0-0.1,0-0.4,0h-0.3L37,24.7
		c-0.1-0.1-0.2-0.3-0.2-0.6h-1.6c-0.6,0-1.1-0.5-1.1-1.1v-1.2c0-0.6,0.5-1.1,1.1-1.1h1.5c-0.2-0.8-0.8-1.5-1.6-1.6l-6-1.1
		c-0.6-0.1-1.1-0.5-1.4-1l-2.4-5c-0.2-0.4-0.6-0.6-1-0.6H11.6c-0.4,0-0.7,0.2-0.9,0.5l-4.2,7.2c-0.3,0.5-0.8,0.7-1.3,0.7H2.7
		c-0.4,0-0.7,0.3-0.7,0.7v0.3h1.4c0.6,0,1.1,0.5,1.1,1.1v1.2c0,0.6-0.5,1.1-1.1,1.1H2v1.8h3.6c0-0.2-0.1-0.3-0.1-0.5
		C5.6,23.2,7.5,21.2,9.9,21.2z M15.7,21.7h-2l0-1.3l0.7,0h2l0,1.3L15.7,21.7z M9.8,17.1l1.9-3.6c0.3-0.6,0.9-0.9,1.5-0.9h9.6
		c0.7,0,1.3,0.4,1.5,1l1.4,3.4c0.2,0.4,0.1,0.8-0.1,1.2c-0.2,0.3-0.6,0.6-1,0.6l-13.8,0c0,0,0,0,0,0c-0.4,0-0.8-0.2-1-0.6
		C9.7,17.9,9.6,17.5,9.8,17.1z"/>
	<path id="XMLID_3014_" class="st0" d="M23.2,14.2c-0.1-0.1-0.2-0.2-0.3-0.2h-9.6c-0.2,0-0.3,0.1-0.4,0.2l-1.8,3.4l13.6,0L23.2,14.2
		z"/>
	<rect id="XMLID_3013_" x="2" y="22.2" class="st0" width="1.2" height="0.8"/>
	<path id="XMLID_3009_" class="st0" d="M9.9,23.1c-1.4,0-2.5,1.1-2.5,2.5c0,1.4,1.1,2.5,2.5,2.5s2.5-1.1,2.5-2.5
		C12.4,24.2,11.3,23.1,9.9,23.1z M9.9,26.7c-0.6,0-1.2-0.5-1.2-1.2s0.5-1.2,1.2-1.2s1.2,0.5,1.2,1.2S10.6,26.7,9.9,26.7z"/>
	<path id="XMLID_3006_" class="st0" d="M29.9,23.1c-1.4,0-2.5,1.1-2.5,2.5c0,1.4,1.1,2.5,2.5,2.5s2.5-1.1,2.5-2.5
		C32.4,24.2,31.3,23.1,29.9,23.1z M29.9,26.7c-0.6,0-1.2-0.5-1.2-1.2s0.5-1.2,1.2-1.2s1.2,0.5,1.2,1.2S30.6,26.7,29.9,26.7z"/>
</g>
</svg>
