<?xml version="1.0" encoding="utf-8"?>
<!-- Generator: Adobe Illustrator 19.0.0, SVG Export Plug-In . SVG Version: 6.00 Build 0)  -->
<svg version="1.1" id="圖層_1" xmlns="http://www.w3.org/2000/svg" xmlns:xlink="http://www.w3.org/1999/xlink" x="0px" y="0px"
	 viewBox="-277 400.9 40 40" style="enable-background:new -277 400.9 40 40;" xml:space="preserve">
<style type="text/css">
	.st0{fill:#FFFFFF;stroke:#FFFFFF;stroke-width:0.2;stroke-miterlimit:10;}
</style>
<g id="XMLID_3004_">
	<rect id="XMLID_3025_" x="-242.5" y="422" class="st0" width="1.2" height="0.7"/>
	<path id="XMLID_3022_" class="st0" d="M-247.3,422.4c-1.5,0-2.7,1.2-2.7,2.7s1.2,2.7,2.7,2.7s2.7-1.2,2.7-2.7
		S-245.8,422.4-247.3,422.4z M-247.3,427.2c-1.2,0-2.2-1-2.2-2.2c0-1.2,1-2.2,2.2-2.2s2.2,1,2.2,2.2
		C-245.1,426.2-246.1,427.2-247.3,427.2z"/>
	<path id="XMLID_3019_" class="st0" d="M-264.6,422.4c-1.5,0-2.7,1.2-2.7,2.7s1.2,2.7,2.7,2.7c1.5,0,2.7-1.2,2.7-2.7
		S-263.2,422.4-264.6,422.4z M-264.6,427.2c-1.2,0-2.2-1-2.2-2.2c0-1.2,1-2.2,2.2-2.2c1.2,0,2.2,1,2.2,2.2
		C-262.5,426.2-263.4,427.2-264.6,427.2z"/>
	<path id="XMLID_3015_" class="st0" d="M-264.6,421.3c2.1,0,3.7,1.6,3.7,3.7c0,0.2,0,0.3-0.1,0.4h9.9c0-0.2-0.1-0.3-0.1-0.4
		c0-2.1,1.6-3.7,3.7-3.7c2.1,0,3.7,1.6,3.7,3.7c0,0.2,0,0.3-0.1,0.4h3.6l-0.1-1h-0.1l0,0c0,0-0.1,0-0.3,0h-0.3l-0.1-0.2
		c-0.1-0.1-0.2-0.3-0.2-0.5h-1.4c-0.5,0-1-0.4-1-1v-1c0-0.5,0.4-1,1-1h1.3c-0.2-0.7-0.7-1.3-1.4-1.4l-5.2-1c-0.5-0.1-1-0.4-1.2-0.9
		l-2.1-4.3c-0.2-0.3-0.5-0.5-0.9-0.5h-11c-0.3,0-0.6,0.2-0.8,0.4l-3.6,6.2c-0.3,0.4-0.7,0.6-1.1,0.6h-2.2c-0.3,0-0.6,0.3-0.6,0.6
		v0.3h1.2c0.5,0,1,0.4,1,1v1c0,0.5-0.4,1-1,1h-1.2v1.6h3.1c0-0.2-0.1-0.3-0.1-0.4C-268.3,423-266.7,421.3-264.6,421.3z
		 M-259.6,421.7h-1.7v-1.1h0.6h1.7v1.1H-259.6z M-264.7,417.8l1.6-3.1c0.3-0.5,0.8-0.8,1.3-0.8h8.3c0.6,0,1.1,0.3,1.3,0.9l1.2,2.9
		c0.2,0.3,0.1,0.7-0.1,1c-0.2,0.3-0.5,0.5-0.9,0.5h-12l0,0c-0.3,0-0.7-0.2-0.9-0.5C-264.8,418.4-264.9,418.1-264.7,417.8z"/>
	<path id="XMLID_3014_" class="st0" d="M-253.1,415.2c-0.1-0.1-0.2-0.2-0.3-0.2h-8.3c-0.2,0-0.3,0.1-0.3,0.2l-1.6,2.9h11.8
		L-253.1,415.2z"/>
	<rect id="XMLID_3013_" x="-271.5" y="422.2" class="st0" width="1" height="0.7"/>
	<path id="XMLID_3009_" class="st0" d="M-264.6,423c-1.2,0-2.2,1-2.2,2.2c0,1.2,1,2.2,2.2,2.2c1.2,0,2.2-1,2.2-2.2
		C-262.5,423.9-263.4,423-264.6,423z M-264.6,426.1c-0.5,0-1-0.4-1-1c0-0.6,0.4-1,1-1c0.6,0,1,0.4,1,1
		C-263.6,425.6-264,426.1-264.6,426.1z"/>
	<path id="XMLID_3006_" class="st0" d="M-247.3,423c-1.2,0-2.2,1-2.2,2.2c0,1.2,1,2.2,2.2,2.2s2.2-1,2.2-2.2
		C-245.1,423.9-246.1,423-247.3,423z M-247.3,426.1c-0.5,0-1-0.4-1-1c0-0.6,0.4-1,1-1c0.6,0,1,0.4,1,1
		C-246.3,425.6-246.7,426.1-247.3,426.1z"/>
</g>
</svg>
