<?xml version="1.0" encoding="utf-8"?>
<!-- Generator: Adobe Illustrator 19.0.0, SVG Export Plug-In . SVG Version: 6.00 Build 0)  -->
<svg version="1.1" id="圖層_1" xmlns="http://www.w3.org/2000/svg" xmlns:xlink="http://www.w3.org/1999/xlink" x="0px" y="0px"
	 viewBox="0 0 40 40" style="enable-background:new 0 0 40 40;" xml:space="preserve">
<style type="text/css">
	.st0{fill:#FFFFFF;}
</style>
<g id="XMLID_1928_">
	<g id="XMLID_2019_">
		<path id="XMLID_2949_" class="st0" d="M23.1,7.5C23,7.2,22.7,7,22.4,7h-4.7c-0.3,0-0.6,0.2-0.8,0.5l-0.8,1.6h7.8L23.1,7.5z"/>
		<path id="XMLID_2945_" class="st0" d="M25.8,10.2H14.2c-1.4,0-2.7,0.9-3.2,2.1h18C28.5,11.1,27.3,10.2,25.8,10.2z"/>
		<path id="XMLID_2871_" class="st0" d="M15,20.6L15,20.6h9.8h0c0.7,0,1.3-0.4,1.5-1l2.5-6.1H11l2.5,6.1
			C13.8,20.2,14.4,20.6,15,20.6z"/>
		<path id="XMLID_2833_" class="st0" d="M24.9,21.8L24.9,21.8h-9.8h0c-1.2,0-2.2-0.7-2.6-1.7l-1.7-4.2v7.9c0,1.9,1.6,3.5,3.5,3.5
			h3.6v-1c0-1.2,1-2.2,2.2-2.2c1.2,0,2.2,1,2.2,2.2v1h3.6c1.9,0,3.5-1.6,3.5-3.5v-8L27.5,20C27.1,21.1,26.1,21.8,24.9,21.8z"/>
		<path id="XMLID_2827_" class="st0" d="M20,25.1c-0.6,0-1.1,0.5-1.1,1.1v1h2.2v-1C21.1,25.6,20.6,25.1,20,25.1z"/>
	</g>
	<polygon id="XMLID_2018_" class="st0" points="25,28.2 25,28.3 26.8,29.9 13.2,29.9 15,28.3 15,28.2 13,28.2 8.7,32 9.6,33 
		11.6,31.3 28.4,31.3 30.4,33 31.3,32 27,28.2 	"/>
</g>
</svg>
